<svg xmlns="http://www.w3.org/2000/svg" viewBox="0 0 70 70" width="70" height="70">
	<style>
		tspan { white-space:pre }
		.shp0 { opacity: 0.722;fill: #f5c506 } 
		.shp1 { fill: #f5f4f2 } 
	</style>
	<g id="player">
		<path id="Ellipse 2" class="shp0" d="M35.5 2C54 2 69 17 69 35.5C69 54 54 69 35.5 69C17 69 2 54 2 35.5C2 17 17 2 35.5 2Z" />
		<path id="Shape 10" class="shp1" d="M29.01 21.12C29.01 20.22 29.44 19.58 30.3 19.21C31.16 18.84 31.93 18.99 32.6 19.65L47.4 34.47C47.82 34.9 48.02 35.4 48 35.99C48 36.56 47.8 37.05 47.4 37.46L32.6 52.34C31.93 53.02 31.16 53.16 30.3 52.78C29.44 52.41 29.01 51.76 29.01 50.82L29.01 21.12L29.01 21.12Z" />
	</g>
</svg>