<svg xmlns="http://www.w3.org/2000/svg" viewBox="0 0 31 24" width="31" height="24">
	<style>
		tspan { white-space:pre }
		.shp0 { fill: #b99403 } 
	</style>
	<g id="menu">
		<path id="Shape 7" class="shp0" d="M29.69 22.18L20.04 12.53L27.18 5.38L29.71 2.85C29.88 3.12 30 3.41 30 3.75L30 21.25C30 21.6 29.87 21.91 29.69 22.18ZM26.56 4.76L23.3 8.02L17.07 14.26L15.97 15.35L5.44 4.82L3.69 3.07L2.88 2.26C3.14 2.11 3.43 2 3.75 2L28.25 2C28.56 2 28.83 2.1 29.09 2.24L28.2 3.12L26.56 4.76ZM3.07 3.69L11.88 12.5L2.26 22.12C2.11 21.86 2 21.57 2 21.25L2 3.75C2 3.43 2.11 3.14 2.26 2.88L3.07 3.69L3.07 3.69ZM12.5 13.12L12.87 13.49L13 13.62L14.2 14.82L15.95 16.57L16.03 16.5L16.05 16.52L17.69 14.88L19.42 13.15L29.05 22.78C28.81 22.91 28.54 23 28.25 23L3.75 23C3.43 23 3.14 22.89 2.88 22.74L12.5 13.12Z" />
	</g>
</svg>