<svg xmlns="http://www.w3.org/2000/svg" viewBox="0 0 25 26" width="25" height="26">
	<style>
		tspan { white-space:pre }
		.shp0 { fill: #b99403 } 
	</style>
	<g id="menu">
		<path id="Shape 6" class="shp0" d="M18.16 3.83C17.06 4.93 17.06 6.72 18.16 7.83C19.27 8.93 21.06 8.93 22.17 7.83L23.79 6.21C23.91 6.67 24 7.15 24 7.65C24 10.78 21.46 13.31 18.33 13.31C17.82 13.31 17.34 13.22 16.87 13.09C16.85 13.11 16.85 13.13 16.83 13.15L6.81 23.14C5.71 24.25 3.91 24.25 2.81 23.14C1.7 22.04 1.7 20.25 2.81 19.15L12.82 9.15C12.84 9.13 12.86 9.13 12.88 9.11C12.76 8.64 12.67 8.16 12.67 7.65C12.67 4.53 15.2 2 18.33 2C18.84 2 19.32 2.09 19.78 2.21L18.16 3.83ZM4.88 20.38C4.49 20.38 4.17 20.69 4.17 21.08C4.17 21.47 4.49 21.79 4.88 21.79C5.27 21.79 5.59 21.47 5.59 21.08C5.59 20.69 5.27 20.38 4.88 20.38Z" />
	</g>
</svg>