<svg xmlns="http://www.w3.org/2000/svg" viewBox="0 0 112 81" width="112" height="81">
	<style>
		tspan { white-space:pre }
		.shp0 { fill: #f5c506 } 
	</style>
	<g id="icon_area">
		<path id="Shape 2" class="shp0" d="M83.75 75L25.84 75C12.68 75 2 64.46 2 51.45C2 40.77 9.25 31.86 19.12 28.98C19.1 28.62 19.03 28.27 19.03 27.91C19.03 18.62 26.66 11.09 36.06 11.09C37.95 11.09 39.73 11.46 41.42 12.02C46.38 5.37 54.3 1 63.31 1C76.27 1 87.06 9.95 89.83 21.91C101.94 24.64 111 35.3 111 48.09C111 62.95 98.8 75 83.75 75ZM63.31 48.09L63.31 27.91L49.69 27.91L49.69 48.09L39.26 48.09L56.5 65.12L73.74 48.09L63.31 48.09Z" />
	</g>
</svg>