<svg xmlns="http://www.w3.org/2000/svg" viewBox="0 0 18 17" width="18" height="17">
	<style>
		tspan { white-space:pre }
		.shp0 { fill: #f5c506 } 
	</style>
	<g id="player">
		<path id="Shape 9" class="shp0" d="M11.37 8.98L11.37 8.02L17 8.02L17 8.98L11.37 8.98ZM11.18 6.18L16.26 3.75L16.68 4.61L11.6 7.04L11.18 6.18ZM10.75 4.04L14.24 1L14.76 1.59L11.27 4.63L10.75 4.04ZM5.26 11.35L5.26 8.79L5.26 8.2L5.26 5.65C6.71 4.33 8.47 3.65 9.68 2.18L9.68 8.2L9.68 8.79L9.68 14.82C8.47 13.34 6.71 12.67 5.26 11.35ZM2 5.66L4.91 5.66L4.91 11.3L2 11.3L2 5.66ZM14.76 15.41L14.24 16L10.75 12.96L11.27 12.36L14.76 15.41ZM11.41 10.01L16.48 12.43L16.07 13.3L10.99 10.87L11.41 10.01Z" />
	</g>
</svg>